<?xml version="1.0" standalone="no"?>
<!DOCTYPE svg PUBLIC "-//W3C//DTD SVG 20010904//EN"
 "http://www.w3.org/TR/2001/REC-SVG-20010904/DTD/svg10.dtd">
<svg version="1.0" xmlns="http://www.w3.org/2000/svg"
 width="96.000000pt" height="96.000000pt" viewBox="0 0 96.000000 96.000000"
 preserveAspectRatio="xMidYMid meet">
<metadata>
Created by potrace 1.11, written by Peter Selinger 2001-2013
</metadata>
<g transform="translate(0.000000,96.000000) scale(0.100000,-0.100000)"
fill="#000000" stroke="none">
<path d="M597 846 c-90 -33 -144 -105 -133 -180 3 -23 8 -50 12 -62 4 -16 -15
-40 -89 -115 -91 -92 -96 -95 -134 -92 -52 4 -115 -36 -139 -88 -55 -123 74
-249 197 -193 52 23 92 87 87 140 -3 35 2 43 92 131 52 51 100 91 107 89 7 -3
34 -8 61 -12 87 -11 152 36 187 135 16 47 20 131 6 131 -4 0 -38 -30 -75 -66
-57 -58 -69 -65 -92 -60 -34 9 -79 56 -81 86 -1 16 17 43 62 88 36 36 65 69
65 73 0 14 -91 10 -133 -5z m-301 -550 c26 -26 25 -63 -2 -90 -27 -26 -61 -28
-90 -4 -23 17 -23 61 -1 90 18 22 28 26 52 22 17 -3 35 -11 41 -18z"/>
</g>
</svg>
